<?xml version="1.0" encoding="utf-8" standalone="no"?>
<!DOCTYPE svg PUBLIC "-//W3C//DTD SVG 1.1//EN"
  "http://www.w3.org/Graphics/SVG/1.1/DTD/svg11.dtd">
<svg xmlns:xlink="http://www.w3.org/1999/xlink" width="460.8pt" height="345.6pt" viewBox="0 0 460.8 345.6" xmlns="http://www.w3.org/2000/svg" version="1.1">
 <metadata>
  <rdf:RDF xmlns:dc="http://purl.org/dc/elements/1.1/" xmlns:cc="http://creativecommons.org/ns#" xmlns:rdf="http://www.w3.org/1999/02/22-rdf-syntax-ns#">
   <cc:Work>
    <dc:type rdf:resource="http://purl.org/dc/dcmitype/StillImage"/>
    <dc:date>2023-06-21T12:24:38.543609</dc:date>
    <dc:format>image/svg+xml</dc:format>
    <dc:creator>
     <cc:Agent>
      <dc:title>Matplotlib v3.5.3, https://matplotlib.org/</dc:title>
     </cc:Agent>
    </dc:creator>
   </cc:Work>
  </rdf:RDF>
 </metadata>
 <defs>
  <style type="text/css">*{stroke-linejoin: round; stroke-linecap: butt}</style>
 </defs>
 <g id="figure_1">
  <g id="patch_1">
   <path d="M 0 345.6 
L 460.8 345.6 
L 460.8 0 
L 0 0 
z
" style="fill: #ffffff"/>
  </g>
  <g id="axes_1">
   <g id="line2d_1">
    <path d="M 146.144141 106.848 
L 146.144141 233.928 
" clip-path="url(#pee8a1eeb32)" style="fill: none; stroke: #8a8a8a; stroke-width: 2.5; stroke-linecap: square"/>
   </g>
   <g id="line2d_2">
    <path d="M 146.144141 106.848 
L 162.346996 106.848 
" clip-path="url(#pee8a1eeb32)" style="fill: none; stroke: #8a8a8a; stroke-width: 2.5; stroke-linecap: square"/>
   </g>
   <g id="line2d_3">
    <path d="M 146.144141 233.928 
L 285.128627 233.928 
" clip-path="url(#pee8a1eeb32)" style="fill: none; stroke: #8a8a8a; stroke-width: 2.5; stroke-linecap: square"/>
   </g>
   <g id="line2d_4">
    <path d="M 146.144141 237.888 
L 146.144141 295.488 
" clip-path="url(#pee8a1eeb32)" style="fill: none; stroke: #8a8a8a; stroke-width: 2.5; stroke-linecap: square"/>
   </g>
   <g id="line2d_5">
    <path d="M 146.144141 237.888 
L 254.523235 237.888 
" clip-path="url(#pee8a1eeb32)" style="fill: none; stroke: #8a8a8a; stroke-width: 2.5; stroke-linecap: square"/>
   </g>
   <g id="line2d_6">
    <path d="M 146.144141 295.488 
L 254.523235 295.488 
" clip-path="url(#pee8a1eeb32)" style="fill: none; stroke: #8a8a8a; stroke-width: 2.5; stroke-linecap: square"/>
   </g>
   <g id="line2d_7">
    <path d="M 162.346996 106.848 
L 162.346996 115.128 
" clip-path="url(#pee8a1eeb32)" style="fill: none; stroke: #8a8a8a; stroke-width: 2.5; stroke-linecap: square"/>
   </g>
   <g id="line2d_8">
    <path d="M 162.346996 115.128 
L 182.510548 115.128 
" clip-path="url(#pee8a1eeb32)" style="fill: none; stroke: #8a8a8a; stroke-width: 2.5; stroke-linecap: square"/>
   </g>
   <g id="line2d_9">
    <path d="M 166.667757 53.568 
L 166.667757 111.168 
" clip-path="url(#pee8a1eeb32)" style="fill: none; stroke: #8a8a8a; stroke-width: 2.5; stroke-linecap: square"/>
   </g>
   <g id="line2d_10">
    <path d="M 166.667757 53.568 
L 223.55778 53.568 
" clip-path="url(#pee8a1eeb32)" style="fill: none; stroke: #8a8a8a; stroke-width: 2.5; stroke-linecap: square"/>
   </g>
   <g id="line2d_11">
    <path d="M 166.667757 111.168 
L 223.55778 111.168 
" clip-path="url(#pee8a1eeb32)" style="fill: none; stroke: #8a8a8a; stroke-width: 2.5; stroke-linecap: square"/>
   </g>
   <g id="line2d_12">
    <path d="M 182.510548 115.128 
L 182.510548 217.728 
" clip-path="url(#pee8a1eeb32)" style="fill: none; stroke: #8a8a8a; stroke-width: 2.5; stroke-linecap: square"/>
   </g>
   <g id="line2d_13">
    <path d="M 182.510548 217.728 
L 285.128627 217.728 
" clip-path="url(#pee8a1eeb32)" style="fill: none; stroke: #8a8a8a; stroke-width: 2.5; stroke-linecap: square"/>
   </g>
   <g id="line2d_14">
    <path d="M 187.191373 115.128 
L 187.191373 151.848 
" clip-path="url(#pee8a1eeb32)" style="fill: none; stroke: #8a8a8a; stroke-width: 2.5; stroke-linecap: square"/>
   </g>
   <g id="line2d_15">
    <path d="M 187.191373 115.128 
L 223.55778 115.128 
" clip-path="url(#pee8a1eeb32)" style="fill: none; stroke: #8a8a8a; stroke-width: 2.5; stroke-linecap: square"/>
   </g>
   <g id="line2d_16">
    <path d="M 187.191373 151.848 
L 223.55778 151.848 
" clip-path="url(#pee8a1eeb32)" style="fill: none; stroke: #8a8a8a; stroke-width: 2.5; stroke-linecap: square"/>
   </g>
   <g id="line2d_17">
    <path d="M 187.191373 156.168 
L 187.191373 213.408 
" clip-path="url(#pee8a1eeb32)" style="fill: none; stroke: #8a8a8a; stroke-width: 2.5; stroke-linecap: square"/>
   </g>
   <g id="line2d_18">
    <path d="M 187.191373 156.168 
L 244.081396 156.168 
" clip-path="url(#pee8a1eeb32)" style="fill: none; stroke: #8a8a8a; stroke-width: 2.5; stroke-linecap: square"/>
   </g>
   <g id="line2d_19">
    <path d="M 187.191373 213.408 
L 244.081396 213.408 
" clip-path="url(#pee8a1eeb32)" style="fill: none; stroke: #8a8a8a; stroke-width: 2.5; stroke-linecap: square"/>
   </g>
   <g id="line2d_20">
    <path d="M 223.55778 53.568 
L 223.55778 111.168 
" clip-path="url(#pee8a1eeb32)" style="fill: none; stroke: #8a8a8a; stroke-width: 2.5; stroke-linecap: square"/>
   </g>
   <g id="line2d_21">
    <path d="M 223.55778 115.128 
L 223.55778 151.848 
" clip-path="url(#pee8a1eeb32)" style="fill: none; stroke: #8a8a8a; stroke-width: 2.5; stroke-linecap: square"/>
   </g>
   <g id="line2d_22">
    <path d="M 244.081396 156.168 
L 244.081396 213.408 
" clip-path="url(#pee8a1eeb32)" style="fill: none; stroke: #8a8a8a; stroke-width: 2.5; stroke-linecap: square"/>
   </g>
   <g id="line2d_23">
    <path d="M 248.76222 156.168 
L 248.76222 213.408 
" clip-path="url(#pee8a1eeb32)" style="fill: none; stroke: #8a8a8a; stroke-width: 2.5; stroke-linecap: square"/>
   </g>
   <g id="line2d_24">
    <path d="M 248.76222 156.168 
L 285.128627 156.168 
" clip-path="url(#pee8a1eeb32)" style="fill: none; stroke: #8a8a8a; stroke-width: 2.5; stroke-linecap: square"/>
   </g>
   <g id="line2d_25">
    <path d="M 248.76222 213.408 
L 285.128627 213.408 
" clip-path="url(#pee8a1eeb32)" style="fill: none; stroke: #8a8a8a; stroke-width: 2.5; stroke-linecap: square"/>
   </g>
   <g id="line2d_26">
    <path d="M 254.523235 237.888 
L 254.523235 295.488 
" clip-path="url(#pee8a1eeb32)" style="fill: none; stroke: #8a8a8a; stroke-width: 2.5; stroke-linecap: square"/>
   </g>
   <g id="line2d_27">
    <path d="M 258.843996 237.888 
L 258.843996 295.488 
" clip-path="url(#pee8a1eeb32)" style="fill: none; stroke: #8a8a8a; stroke-width: 2.5; stroke-linecap: square"/>
   </g>
   <g id="line2d_28">
    <path d="M 258.843996 237.888 
L 326.175859 237.888 
" clip-path="url(#pee8a1eeb32)" style="fill: none; stroke: #8a8a8a; stroke-width: 2.5; stroke-linecap: square"/>
   </g>
   <g id="line2d_29">
    <path d="M 258.843996 295.488 
L 326.175859 295.488 
" clip-path="url(#pee8a1eeb32)" style="fill: none; stroke: #8a8a8a; stroke-width: 2.5; stroke-linecap: square"/>
   </g>
   <g id="line2d_30">
    <path d="M 285.128627 156.168 
L 285.128627 213.408 
" clip-path="url(#pee8a1eeb32)" style="fill: none; stroke: #8a8a8a; stroke-width: 2.5; stroke-linecap: square"/>
   </g>
   <g id="line2d_31">
    <path d="M 285.128627 217.728 
L 285.128627 233.928 
" clip-path="url(#pee8a1eeb32)" style="fill: none; stroke: #8a8a8a; stroke-width: 2.5; stroke-linecap: square"/>
   </g>
   <g id="line2d_32">
    <path d="M 289.449389 156.168 
L 289.449389 233.928 
" clip-path="url(#pee8a1eeb32)" style="fill: none; stroke: #8a8a8a; stroke-width: 2.5; stroke-linecap: square"/>
   </g>
   <g id="line2d_33">
    <path d="M 289.449389 156.168 
L 326.175859 156.168 
" clip-path="url(#pee8a1eeb32)" style="fill: none; stroke: #8a8a8a; stroke-width: 2.5; stroke-linecap: square"/>
   </g>
   <g id="line2d_34">
    <path d="M 289.449389 233.928 
L 326.175859 233.928 
" clip-path="url(#pee8a1eeb32)" style="fill: none; stroke: #8a8a8a; stroke-width: 2.5; stroke-linecap: square"/>
   </g>
   <g id="line2d_35">
    <path d="M 326.175859 156.168 
L 326.175859 233.928 
" clip-path="url(#pee8a1eeb32)" style="fill: none; stroke: #8a8a8a; stroke-width: 2.5; stroke-linecap: square"/>
   </g>
   <g id="line2d_36">
    <path d="M 326.175859 237.888 
L 326.175859 295.488 
" clip-path="url(#pee8a1eeb32)" style="fill: none; stroke: #8a8a8a; stroke-width: 2.5; stroke-linecap: square"/>
   </g>
   <g id="line2d_37">
    <path d="M 146.144141 106.848 
L 162.346996 106.848 
" clip-path="url(#pee8a1eeb32)" style="fill: none; stroke: #bd6565; stroke-width: 2.5; stroke-linecap: square"/>
   </g>
   <g id="line2d_38">
    <path d="M 167.02782 111.168 
L 183.950802 111.168 
" clip-path="url(#pee8a1eeb32)" style="fill: none; stroke: #bd6565; stroke-width: 2.5; stroke-linecap: square"/>
   </g>
   <g id="line2d_39">
    <path d="M 167.02782 115.128 
L 182.510548 115.128 
" clip-path="url(#pee8a1eeb32)" style="fill: none; stroke: #bd6565; stroke-width: 2.5; stroke-linecap: square"/>
   </g>
   <g id="line2d_40">
    <path d="M 182.510548 124.488 
L 182.510548 142.848 
" clip-path="url(#pee8a1eeb32)" style="fill: none; stroke: #bd6565; stroke-width: 2.5; stroke-linecap: square"/>
   </g>
   <g id="line2d_41">
    <path d="M 187.191373 124.488 
L 187.191373 142.848 
" clip-path="url(#pee8a1eeb32)" style="fill: none; stroke: #bd6565; stroke-width: 2.5; stroke-linecap: square"/>
   </g>
   <g id="line2d_42">
    <path d="M 208.075052 213.408 
L 227.158414 213.408 
" clip-path="url(#pee8a1eeb32)" style="fill: none; stroke: #bd6565; stroke-width: 2.5; stroke-linecap: square"/>
   </g>
   <g id="line2d_43">
    <path d="M 208.075052 217.728 
L 227.158414 217.728 
" clip-path="url(#pee8a1eeb32)" style="fill: none; stroke: #bd6565; stroke-width: 2.5; stroke-linecap: square"/>
   </g>
   <g id="line2d_44">
    <path d="M 208.075052 233.928 
L 227.158414 233.928 
" clip-path="url(#pee8a1eeb32)" style="fill: none; stroke: #bd6565; stroke-width: 2.5; stroke-linecap: square"/>
   </g>
   <g id="line2d_45">
    <path d="M 208.075052 237.888 
L 227.158414 237.888 
" clip-path="url(#pee8a1eeb32)" style="fill: none; stroke: #bd6565; stroke-width: 2.5; stroke-linecap: square"/>
   </g>
   <g id="line2d_46">
    <path d="M 259.564123 213.408 
L 278.287422 213.408 
" clip-path="url(#pee8a1eeb32)" style="fill: none; stroke: #bd6565; stroke-width: 2.5; stroke-linecap: square"/>
   </g>
   <g id="line2d_47">
    <path d="M 259.564123 217.728 
L 278.287422 217.728 
" clip-path="url(#pee8a1eeb32)" style="fill: none; stroke: #bd6565; stroke-width: 2.5; stroke-linecap: square"/>
   </g>
   <g id="line2d_48">
    <path d="M 259.564123 233.928 
L 278.287422 233.928 
" clip-path="url(#pee8a1eeb32)" style="fill: none; stroke: #bd6565; stroke-width: 2.5; stroke-linecap: square"/>
   </g>
   <g id="line2d_49">
    <path d="M 259.564123 237.888 
L 278.287422 237.888 
" clip-path="url(#pee8a1eeb32)" style="fill: none; stroke: #bd6565; stroke-width: 2.5; stroke-linecap: square"/>
   </g>
   <g id="line2d_50">
    <path d="M 285.128627 218.088 
L 285.128627 233.568 
" clip-path="url(#pee8a1eeb32)" style="fill: none; stroke: #bd6565; stroke-width: 2.5; stroke-linecap: square"/>
   </g>
   <g id="line2d_51">
    <path d="M 289.449389 216.648 
L 289.449389 233.568 
" clip-path="url(#pee8a1eeb32)" style="fill: none; stroke: #bd6565; stroke-width: 2.5; stroke-linecap: square"/>
   </g>
   <g id="line2d_52">
    <path d="M 162.707059 295.488 
L 185.030992 295.488 
" clip-path="url(#pee8a1eeb32)" style="fill: none; stroke: #55ffff; stroke-width: 2.5; stroke-linecap: square"/>
   </g>
   <g id="line2d_53">
    <path d="M 213.836067 295.488 
L 236.16 295.488 
" clip-path="url(#pee8a1eeb32)" style="fill: none; stroke: #55ffff; stroke-width: 2.5; stroke-linecap: square"/>
   </g>
   <g id="line2d_54">
    <path d="M 223.55778 61.848 
L 223.55778 88.488 
" clip-path="url(#pee8a1eeb32)" style="fill: none; stroke: #55ffff; stroke-width: 2.5; stroke-linecap: square"/>
   </g>
   <g id="line2d_55">
    <path d="M 223.55778 117.288 
L 223.55778 132.408 
" clip-path="url(#pee8a1eeb32)" style="fill: none; stroke: #55ffff; stroke-width: 2.5; stroke-linecap: square"/>
   </g>
   <g id="line2d_56">
    <path d="M 226.798351 156.168 
L 244.081396 156.168 
" clip-path="url(#pee8a1eeb32)" style="fill: none; stroke: #55ffff; stroke-width: 2.5; stroke-linecap: square"/>
   </g>
   <g id="line2d_57">
    <path d="M 265.685202 156.168 
L 282.968247 156.168 
" clip-path="url(#pee8a1eeb32)" style="fill: none; stroke: #55ffff; stroke-width: 2.5; stroke-linecap: square"/>
   </g>
   <g id="line2d_58">
    <path d="M 299.171101 295.488 
L 319.334654 295.488 
" clip-path="url(#pee8a1eeb32)" style="fill: none; stroke: #55ffff; stroke-width: 2.5; stroke-linecap: square"/>
   </g>
   <g id="line2d_59">
    <path d="M 308.532751 156.168 
L 325.815796 156.168 
" clip-path="url(#pee8a1eeb32)" style="fill: none; stroke: #55ffff; stroke-width: 2.5; stroke-linecap: square"/>
   </g>
   <g id="legend_1">
    <g id="patch_2">
     <path d="M 338.296563 58.070438 
L 358.296563 58.070438 
L 358.296563 51.070438 
L 338.296563 51.070438 
z
" style="fill: #8a8a8a; stroke: #000000; stroke-linejoin: miter"/>
    </g>
    <g id="text_1">
     <!-- Wall -->
     <g transform="translate(366.296563 58.070438)scale(0.1 -0.1)">
      <defs>
       <path id="DejaVuSans-57" d="M 213 4666 
L 850 4666 
L 1831 722 
L 2809 4666 
L 3519 4666 
L 4500 722 
L 5478 4666 
L 6119 4666 
L 4947 0 
L 4153 0 
L 3169 4050 
L 2175 0 
L 1381 0 
L 213 4666 
z
" transform="scale(0.015625)"/>
       <path id="DejaVuSans-61" d="M 2194 1759 
Q 1497 1759 1228 1600 
Q 959 1441 959 1056 
Q 959 750 1161 570 
Q 1363 391 1709 391 
Q 2188 391 2477 730 
Q 2766 1069 2766 1631 
L 2766 1759 
L 2194 1759 
z
M 3341 1997 
L 3341 0 
L 2766 0 
L 2766 531 
Q 2569 213 2275 61 
Q 1981 -91 1556 -91 
Q 1019 -91 701 211 
Q 384 513 384 1019 
Q 384 1609 779 1909 
Q 1175 2209 1959 2209 
L 2766 2209 
L 2766 2266 
Q 2766 2663 2505 2880 
Q 2244 3097 1772 3097 
Q 1472 3097 1187 3025 
Q 903 2953 641 2809 
L 641 3341 
Q 956 3463 1253 3523 
Q 1550 3584 1831 3584 
Q 2591 3584 2966 3190 
Q 3341 2797 3341 1997 
z
" transform="scale(0.015625)"/>
       <path id="DejaVuSans-6c" d="M 603 4863 
L 1178 4863 
L 1178 0 
L 603 0 
L 603 4863 
z
" transform="scale(0.015625)"/>
      </defs>
      <use xlink:href="#DejaVuSans-57"/>
      <use xlink:href="#DejaVuSans-61" x="92.501953"/>
      <use xlink:href="#DejaVuSans-6c" x="153.78125"/>
      <use xlink:href="#DejaVuSans-6c" x="181.564453"/>
     </g>
    </g>
    <g id="patch_3">
     <path d="M 338.296563 72.748563 
L 358.296563 72.748563 
L 358.296563 65.748563 
L 338.296563 65.748563 
z
" style="fill: #bd6565; stroke: #000000; stroke-linejoin: miter"/>
    </g>
    <g id="text_2">
     <!-- Door -->
     <g transform="translate(366.296563 72.748563)scale(0.1 -0.1)">
      <defs>
       <path id="DejaVuSans-44" d="M 1259 4147 
L 1259 519 
L 2022 519 
Q 2988 519 3436 956 
Q 3884 1394 3884 2338 
Q 3884 3275 3436 3711 
Q 2988 4147 2022 4147 
L 1259 4147 
z
M 628 4666 
L 1925 4666 
Q 3281 4666 3915 4102 
Q 4550 3538 4550 2338 
Q 4550 1131 3912 565 
Q 3275 0 1925 0 
L 628 0 
L 628 4666 
z
" transform="scale(0.015625)"/>
       <path id="DejaVuSans-6f" d="M 1959 3097 
Q 1497 3097 1228 2736 
Q 959 2375 959 1747 
Q 959 1119 1226 758 
Q 1494 397 1959 397 
Q 2419 397 2687 759 
Q 2956 1122 2956 1747 
Q 2956 2369 2687 2733 
Q 2419 3097 1959 3097 
z
M 1959 3584 
Q 2709 3584 3137 3096 
Q 3566 2609 3566 1747 
Q 3566 888 3137 398 
Q 2709 -91 1959 -91 
Q 1206 -91 779 398 
Q 353 888 353 1747 
Q 353 2609 779 3096 
Q 1206 3584 1959 3584 
z
" transform="scale(0.015625)"/>
       <path id="DejaVuSans-72" d="M 2631 2963 
Q 2534 3019 2420 3045 
Q 2306 3072 2169 3072 
Q 1681 3072 1420 2755 
Q 1159 2438 1159 1844 
L 1159 0 
L 581 0 
L 581 3500 
L 1159 3500 
L 1159 2956 
Q 1341 3275 1631 3429 
Q 1922 3584 2338 3584 
Q 2397 3584 2469 3576 
Q 2541 3569 2628 3553 
L 2631 2963 
z
" transform="scale(0.015625)"/>
      </defs>
      <use xlink:href="#DejaVuSans-44"/>
      <use xlink:href="#DejaVuSans-6f" x="77.001953"/>
      <use xlink:href="#DejaVuSans-6f" x="138.183594"/>
      <use xlink:href="#DejaVuSans-72" x="199.365234"/>
     </g>
    </g>
    <g id="patch_4">
     <path d="M 338.296563 87.426688 
L 358.296563 87.426688 
L 358.296563 80.426688 
L 338.296563 80.426688 
z
" style="fill: #55ffff; stroke: #000000; stroke-linejoin: miter"/>
    </g>
    <g id="text_3">
     <!-- Window -->
     <g transform="translate(366.296563 87.426688)scale(0.1 -0.1)">
      <defs>
       <path id="DejaVuSans-69" d="M 603 3500 
L 1178 3500 
L 1178 0 
L 603 0 
L 603 3500 
z
M 603 4863 
L 1178 4863 
L 1178 4134 
L 603 4134 
L 603 4863 
z
" transform="scale(0.015625)"/>
       <path id="DejaVuSans-6e" d="M 3513 2113 
L 3513 0 
L 2938 0 
L 2938 2094 
Q 2938 2591 2744 2837 
Q 2550 3084 2163 3084 
Q 1697 3084 1428 2787 
Q 1159 2491 1159 1978 
L 1159 0 
L 581 0 
L 581 3500 
L 1159 3500 
L 1159 2956 
Q 1366 3272 1645 3428 
Q 1925 3584 2291 3584 
Q 2894 3584 3203 3211 
Q 3513 2838 3513 2113 
z
" transform="scale(0.015625)"/>
       <path id="DejaVuSans-64" d="M 2906 2969 
L 2906 4863 
L 3481 4863 
L 3481 0 
L 2906 0 
L 2906 525 
Q 2725 213 2448 61 
Q 2172 -91 1784 -91 
Q 1150 -91 751 415 
Q 353 922 353 1747 
Q 353 2572 751 3078 
Q 1150 3584 1784 3584 
Q 2172 3584 2448 3432 
Q 2725 3281 2906 2969 
z
M 947 1747 
Q 947 1113 1208 752 
Q 1469 391 1925 391 
Q 2381 391 2643 752 
Q 2906 1113 2906 1747 
Q 2906 2381 2643 2742 
Q 2381 3103 1925 3103 
Q 1469 3103 1208 2742 
Q 947 2381 947 1747 
z
" transform="scale(0.015625)"/>
       <path id="DejaVuSans-77" d="M 269 3500 
L 844 3500 
L 1563 769 
L 2278 3500 
L 2956 3500 
L 3675 769 
L 4391 3500 
L 4966 3500 
L 4050 0 
L 3372 0 
L 2619 2869 
L 1863 0 
L 1184 0 
L 269 3500 
z
" transform="scale(0.015625)"/>
      </defs>
      <use xlink:href="#DejaVuSans-57"/>
      <use xlink:href="#DejaVuSans-69" x="96.626953"/>
      <use xlink:href="#DejaVuSans-6e" x="124.410156"/>
      <use xlink:href="#DejaVuSans-64" x="187.789062"/>
      <use xlink:href="#DejaVuSans-6f" x="251.265625"/>
      <use xlink:href="#DejaVuSans-77" x="312.447266"/>
     </g>
    </g>
   </g>
   <g id="legend_2">
    <g id="patch_5">
     <path d="M 338.296563 58.070438 
L 358.296563 58.070438 
L 358.296563 51.070438 
L 338.296563 51.070438 
z
" style="fill: #8a8a8a; stroke: #000000; stroke-linejoin: miter"/>
    </g>
    <g id="text_4">
     <!-- Wall -->
     <g transform="translate(366.296563 58.070438)scale(0.1 -0.1)">
      <use xlink:href="#DejaVuSans-57"/>
      <use xlink:href="#DejaVuSans-61" x="92.501953"/>
      <use xlink:href="#DejaVuSans-6c" x="153.78125"/>
      <use xlink:href="#DejaVuSans-6c" x="181.564453"/>
     </g>
    </g>
    <g id="patch_6">
     <path d="M 338.296563 72.748563 
L 358.296563 72.748563 
L 358.296563 65.748563 
L 338.296563 65.748563 
z
" style="fill: #bd6565; stroke: #000000; stroke-linejoin: miter"/>
    </g>
    <g id="text_5">
     <!-- Door -->
     <g transform="translate(366.296563 72.748563)scale(0.1 -0.1)">
      <use xlink:href="#DejaVuSans-44"/>
      <use xlink:href="#DejaVuSans-6f" x="77.001953"/>
      <use xlink:href="#DejaVuSans-6f" x="138.183594"/>
      <use xlink:href="#DejaVuSans-72" x="199.365234"/>
     </g>
    </g>
    <g id="patch_7">
     <path d="M 338.296563 87.426688 
L 358.296563 87.426688 
L 358.296563 80.426688 
L 338.296563 80.426688 
z
" style="fill: #55ffff; stroke: #000000; stroke-linejoin: miter"/>
    </g>
    <g id="text_6">
     <!-- Window -->
     <g transform="translate(366.296563 87.426688)scale(0.1 -0.1)">
      <use xlink:href="#DejaVuSans-57"/>
      <use xlink:href="#DejaVuSans-69" x="96.626953"/>
      <use xlink:href="#DejaVuSans-6e" x="124.410156"/>
      <use xlink:href="#DejaVuSans-64" x="187.789062"/>
      <use xlink:href="#DejaVuSans-6f" x="251.265625"/>
      <use xlink:href="#DejaVuSans-77" x="312.447266"/>
     </g>
    </g>
   </g>
  </g>
 </g>
 <defs>
  <clipPath id="pee8a1eeb32">
   <rect x="57.6" y="41.472" width="357.12" height="266.112"/>
  </clipPath>
 </defs>
</svg>
